<mxfile host="app.diagrams.net" agent="Mozilla/5.0 (Windows NT 10.0; Win64; x64) AppleWebKit/537.36 (KHTML, like Gecko) Chrome/134.0.0.0 Safari/537.36" version="26.1.0">
  <diagram name="PaginÄƒ-1" id="3nINy_-sv0lxahv3zKro">
    <mxGraphModel dx="2117" dy="660" grid="1" gridSize="10" guides="1" tooltips="1" connect="1" arrows="1" fold="1" page="1" pageScale="1" pageWidth="827" pageHeight="1169" math="0" shadow="0">
      <root>
        <mxCell id="0" />
        <mxCell id="1" parent="0" />
        <mxCell id="fT4AIz35A2F0CcpxhLr5-1" value="LOGIN&lt;div&gt;&lt;br&gt;&lt;/div&gt;&lt;div&gt;email&lt;/div&gt;&lt;div&gt;parola&lt;/div&gt;" style="rounded=0;whiteSpace=wrap;html=1;" parent="1" vertex="1">
          <mxGeometry x="70" y="40" width="120" height="170" as="geometry" />
        </mxCell>
        <mxCell id="fT4AIz35A2F0CcpxhLr5-3" value="REGISTER&lt;br&gt;&lt;div&gt;&lt;br&gt;&lt;/div&gt;&lt;div&gt;nume utilizator&lt;/div&gt;&lt;div&gt;email&lt;/div&gt;&lt;div&gt;parola&lt;/div&gt;" style="rounded=0;whiteSpace=wrap;html=1;" parent="1" vertex="1">
          <mxGeometry x="230" y="40" width="120" height="170" as="geometry" />
        </mxCell>
        <mxCell id="fT4AIz35A2F0CcpxhLr5-9" value="NUME CARTE" style="swimlane;whiteSpace=wrap;html=1;" parent="1" vertex="1">
          <mxGeometry x="70" y="280" width="220" height="300" as="geometry" />
        </mxCell>
        <mxCell id="fT4AIz35A2F0CcpxhLr5-10" value="POZA CARTE" style="rounded=0;whiteSpace=wrap;html=1;" parent="fT4AIz35A2F0CcpxhLr5-9" vertex="1">
          <mxGeometry x="83.13" y="30" width="53.75" height="70" as="geometry" />
        </mxCell>
        <mxCell id="fT4AIz35A2F0CcpxhLr5-11" value="&lt;font style=&quot;font-size: 9px;&quot;&gt;seria din care face parte&lt;/font&gt;" style="text;html=1;align=center;verticalAlign=middle;resizable=0;points=[];autosize=1;strokeColor=none;fillColor=none;" parent="fT4AIz35A2F0CcpxhLr5-9" vertex="1">
          <mxGeometry x="50" y="100" width="120" height="30" as="geometry" />
        </mxCell>
        <mxCell id="fT4AIz35A2F0CcpxhLr5-12" value="rating mediu" style="text;html=1;align=center;verticalAlign=middle;resizable=0;points=[];autosize=1;strokeColor=none;fillColor=none;" parent="fT4AIz35A2F0CcpxhLr5-9" vertex="1">
          <mxGeometry x="65" y="120" width="90" height="30" as="geometry" />
        </mxCell>
        <mxCell id="fT4AIz35A2F0CcpxhLr5-16" value="DESCRIERE" style="rounded=0;whiteSpace=wrap;html=1;" parent="fT4AIz35A2F0CcpxhLr5-9" vertex="1">
          <mxGeometry x="20" y="180" width="180" height="120" as="geometry" />
        </mxCell>
        <mxCell id="vKX9cb_u-WbWg1o9BRCX-27" value="&lt;span style=&quot;font-size: 9px;&quot;&gt;btn pt rating&lt;/span&gt;" style="rounded=1;whiteSpace=wrap;html=1;" parent="fT4AIz35A2F0CcpxhLr5-9" vertex="1">
          <mxGeometry x="10" y="150" width="50" height="20" as="geometry" />
        </mxCell>
        <mxCell id="vKX9cb_u-WbWg1o9BRCX-28" value="&lt;span style=&quot;font-size: 9px;&quot;&gt;btn add in lists&lt;/span&gt;" style="rounded=1;whiteSpace=wrap;html=1;" parent="fT4AIz35A2F0CcpxhLr5-9" vertex="1">
          <mxGeometry x="70.63" y="150" width="69.37" height="20" as="geometry" />
        </mxCell>
        <mxCell id="vKX9cb_u-WbWg1o9BRCX-29" value="&lt;span style=&quot;font-size: 9px;&quot;&gt;btn pt reviews&lt;/span&gt;" style="rounded=1;whiteSpace=wrap;html=1;" parent="fT4AIz35A2F0CcpxhLr5-9" vertex="1">
          <mxGeometry x="150" y="150" width="60" height="20" as="geometry" />
        </mxCell>
        <mxCell id="fT4AIz35A2F0CcpxhLr5-20" value="&lt;font style=&quot;font-size: 16px;&quot;&gt;My Books&lt;/font&gt;" style="text;html=1;align=center;verticalAlign=middle;resizable=0;points=[];autosize=1;strokeColor=none;fillColor=none;" parent="1" vertex="1">
          <mxGeometry x="135" y="585" width="90" height="30" as="geometry" />
        </mxCell>
        <mxCell id="fT4AIz35A2F0CcpxhLr5-29" value="&lt;font style=&quot;font-size: 16px;&quot;&gt;Search&lt;/font&gt;" style="text;html=1;align=center;verticalAlign=middle;resizable=0;points=[];autosize=1;strokeColor=none;fillColor=none;" parent="1" vertex="1">
          <mxGeometry x="-435" y="950" width="70" height="30" as="geometry" />
        </mxCell>
        <mxCell id="fT4AIz35A2F0CcpxhLr5-30" value="" style="swimlane;startSize=0;" parent="1" vertex="1">
          <mxGeometry x="-510" y="650" width="220" height="300" as="geometry" />
        </mxCell>
        <mxCell id="fT4AIz35A2F0CcpxhLr5-32" value="&lt;font style=&quot;font-size: 14px;&quot;&gt;bara de cautare&lt;/font&gt;" style="rounded=1;whiteSpace=wrap;html=1;" parent="fT4AIz35A2F0CcpxhLr5-30" vertex="1">
          <mxGeometry x="10" y="20" width="200" height="30" as="geometry" />
        </mxCell>
        <mxCell id="fT4AIz35A2F0CcpxhLr5-33" value="nume gen" style="rounded=0;whiteSpace=wrap;html=1;" parent="fT4AIz35A2F0CcpxhLr5-30" vertex="1">
          <mxGeometry x="10" y="80" width="210" height="20" as="geometry" />
        </mxCell>
        <mxCell id="fT4AIz35A2F0CcpxhLr5-34" value="" style="rounded=0;whiteSpace=wrap;html=1;" parent="fT4AIz35A2F0CcpxhLr5-30" vertex="1">
          <mxGeometry x="10" y="100" width="210" height="50" as="geometry" />
        </mxCell>
        <mxCell id="fT4AIz35A2F0CcpxhLr5-35" value="alt nume gen" style="rounded=0;whiteSpace=wrap;html=1;" parent="fT4AIz35A2F0CcpxhLr5-30" vertex="1">
          <mxGeometry x="10" y="170" width="210" height="20" as="geometry" />
        </mxCell>
        <mxCell id="fT4AIz35A2F0CcpxhLr5-36" value="" style="rounded=0;whiteSpace=wrap;html=1;" parent="fT4AIz35A2F0CcpxhLr5-30" vertex="1">
          <mxGeometry x="10" y="190" width="210" height="50" as="geometry" />
        </mxCell>
        <mxCell id="fT4AIz35A2F0CcpxhLr5-40" value="" style="endArrow=none;html=1;rounded=0;entryX=0.25;entryY=0;entryDx=0;entryDy=0;" parent="fT4AIz35A2F0CcpxhLr5-30" edge="1">
          <mxGeometry width="50" height="50" relative="1" as="geometry">
            <mxPoint x="109.5" y="150" as="sourcePoint" />
            <mxPoint x="109.5" y="100" as="targetPoint" />
          </mxGeometry>
        </mxCell>
        <mxCell id="fT4AIz35A2F0CcpxhLr5-41" value="" style="endArrow=none;html=1;rounded=0;entryX=0.25;entryY=0;entryDx=0;entryDy=0;" parent="fT4AIz35A2F0CcpxhLr5-30" edge="1">
          <mxGeometry width="50" height="50" relative="1" as="geometry">
            <mxPoint x="160" y="150" as="sourcePoint" />
            <mxPoint x="160" y="100" as="targetPoint" />
          </mxGeometry>
        </mxCell>
        <mxCell id="fT4AIz35A2F0CcpxhLr5-42" value="&lt;font style=&quot;font-size: 9px;&quot;&gt;poza carte&lt;/font&gt;" style="text;html=1;align=center;verticalAlign=middle;whiteSpace=wrap;rounded=0;" parent="fT4AIz35A2F0CcpxhLr5-30" vertex="1">
          <mxGeometry x="20" y="110" width="30" height="30" as="geometry" />
        </mxCell>
        <mxCell id="fT4AIz35A2F0CcpxhLr5-44" value="&lt;font style=&quot;font-size: 9px;&quot;&gt;poza carte&lt;/font&gt;" style="text;html=1;align=center;verticalAlign=middle;whiteSpace=wrap;rounded=0;" parent="fT4AIz35A2F0CcpxhLr5-30" vertex="1">
          <mxGeometry x="120" y="110" width="30" height="30" as="geometry" />
        </mxCell>
        <mxCell id="fT4AIz35A2F0CcpxhLr5-43" value="&lt;font style=&quot;font-size: 9px;&quot;&gt;poza carte&lt;/font&gt;" style="text;html=1;align=center;verticalAlign=middle;whiteSpace=wrap;rounded=0;" parent="fT4AIz35A2F0CcpxhLr5-30" vertex="1">
          <mxGeometry x="69" y="110" width="30" height="30" as="geometry" />
        </mxCell>
        <mxCell id="fT4AIz35A2F0CcpxhLr5-47" value="" style="endArrow=none;html=1;rounded=0;entryX=0.25;entryY=0;entryDx=0;entryDy=0;" parent="fT4AIz35A2F0CcpxhLr5-30" edge="1">
          <mxGeometry width="50" height="50" relative="1" as="geometry">
            <mxPoint x="60" y="240" as="sourcePoint" />
            <mxPoint x="60" y="190" as="targetPoint" />
          </mxGeometry>
        </mxCell>
        <mxCell id="fT4AIz35A2F0CcpxhLr5-49" value="" style="endArrow=none;html=1;rounded=0;entryX=0.25;entryY=0;entryDx=0;entryDy=0;" parent="fT4AIz35A2F0CcpxhLr5-30" edge="1">
          <mxGeometry width="50" height="50" relative="1" as="geometry">
            <mxPoint x="160" y="240" as="sourcePoint" />
            <mxPoint x="160" y="190" as="targetPoint" />
          </mxGeometry>
        </mxCell>
        <mxCell id="fT4AIz35A2F0CcpxhLr5-48" value="" style="endArrow=none;html=1;rounded=0;entryX=0.25;entryY=0;entryDx=0;entryDy=0;" parent="fT4AIz35A2F0CcpxhLr5-30" edge="1">
          <mxGeometry width="50" height="50" relative="1" as="geometry">
            <mxPoint x="109.5" y="240" as="sourcePoint" />
            <mxPoint x="109.5" y="190" as="targetPoint" />
          </mxGeometry>
        </mxCell>
        <mxCell id="fT4AIz35A2F0CcpxhLr5-53" value="&lt;font style=&quot;font-size: 10px;&quot;&gt;more books ...&lt;/font&gt;" style="text;html=1;align=center;verticalAlign=middle;whiteSpace=wrap;rounded=0;" parent="fT4AIz35A2F0CcpxhLr5-30" vertex="1">
          <mxGeometry x="170" y="200" width="40" height="30" as="geometry" />
        </mxCell>
        <mxCell id="fT4AIz35A2F0CcpxhLr5-52" value="&lt;font style=&quot;font-size: 9px;&quot;&gt;poza carte&lt;/font&gt;" style="text;html=1;align=center;verticalAlign=middle;whiteSpace=wrap;rounded=0;" parent="fT4AIz35A2F0CcpxhLr5-30" vertex="1">
          <mxGeometry x="120" y="200" width="30" height="30" as="geometry" />
        </mxCell>
        <mxCell id="fT4AIz35A2F0CcpxhLr5-51" value="&lt;font style=&quot;font-size: 9px;&quot;&gt;poza carte&lt;/font&gt;" style="text;html=1;align=center;verticalAlign=middle;whiteSpace=wrap;rounded=0;" parent="fT4AIz35A2F0CcpxhLr5-30" vertex="1">
          <mxGeometry x="69" y="200" width="30" height="30" as="geometry" />
        </mxCell>
        <mxCell id="fT4AIz35A2F0CcpxhLr5-50" value="&lt;font style=&quot;font-size: 9px;&quot;&gt;poza carte&lt;/font&gt;" style="text;html=1;align=center;verticalAlign=middle;whiteSpace=wrap;rounded=0;" parent="fT4AIz35A2F0CcpxhLr5-30" vertex="1">
          <mxGeometry x="20" y="200" width="30" height="30" as="geometry" />
        </mxCell>
        <mxCell id="fT4AIz35A2F0CcpxhLr5-54" value="&lt;font style=&quot;font-size: 16px;&quot;&gt;etc ...&lt;/font&gt;" style="text;html=1;align=center;verticalAlign=middle;resizable=0;points=[];autosize=1;strokeColor=none;fillColor=none;" parent="fT4AIz35A2F0CcpxhLr5-30" vertex="1">
          <mxGeometry x="90" y="248" width="60" height="30" as="geometry" />
        </mxCell>
        <mxCell id="fT4AIz35A2F0CcpxhLr5-39" value="" style="endArrow=none;html=1;rounded=0;entryX=0.25;entryY=0;entryDx=0;entryDy=0;exitX=0.25;exitY=1;exitDx=0;exitDy=0;" parent="fT4AIz35A2F0CcpxhLr5-30" source="fT4AIz35A2F0CcpxhLr5-34" target="fT4AIz35A2F0CcpxhLr5-34" edge="1">
          <mxGeometry width="50" height="50" relative="1" as="geometry">
            <mxPoint x="60" y="150" as="sourcePoint" />
            <mxPoint x="110" y="120" as="targetPoint" />
          </mxGeometry>
        </mxCell>
        <mxCell id="fT4AIz35A2F0CcpxhLr5-78" value="&lt;font style=&quot;font-size: 10px;&quot;&gt;more books ...&lt;/font&gt;" style="text;html=1;align=center;verticalAlign=middle;whiteSpace=wrap;rounded=0;" parent="fT4AIz35A2F0CcpxhLr5-30" vertex="1">
          <mxGeometry x="165" y="110" width="45" height="30" as="geometry" />
        </mxCell>
        <mxCell id="fT4AIz35A2F0CcpxhLr5-55" value="" style="swimlane;startSize=0;" parent="1" vertex="1">
          <mxGeometry x="-510" y="1050" width="220" height="300" as="geometry" />
        </mxCell>
        <mxCell id="fT4AIz35A2F0CcpxhLr5-76" value="POZA" style="rounded=0;whiteSpace=wrap;html=1;" parent="fT4AIz35A2F0CcpxhLr5-55" vertex="1">
          <mxGeometry x="77.5" y="30" width="65" height="70" as="geometry" />
        </mxCell>
        <mxCell id="fT4AIz35A2F0CcpxhLr5-77" value="&lt;font style=&quot;font-size: 16px;&quot;&gt;etc ...&lt;/font&gt;" style="text;html=1;align=center;verticalAlign=middle;resizable=0;points=[];autosize=1;strokeColor=none;fillColor=none;" parent="fT4AIz35A2F0CcpxhLr5-55" vertex="1">
          <mxGeometry x="80" y="130" width="60" height="30" as="geometry" />
        </mxCell>
        <mxCell id="vKX9cb_u-WbWg1o9BRCX-36" value="&lt;font style=&quot;font-size: 10px;&quot;&gt;EDIT PROFILE&lt;/font&gt;" style="rounded=1;whiteSpace=wrap;html=1;" parent="fT4AIz35A2F0CcpxhLr5-55" vertex="1">
          <mxGeometry x="80" y="250" width="60" height="30" as="geometry" />
        </mxCell>
        <mxCell id="fT4AIz35A2F0CcpxhLr5-75" value="&lt;font style=&quot;font-size: 16px;&quot;&gt;My Profile&lt;/font&gt;" style="text;html=1;align=center;verticalAlign=middle;resizable=0;points=[];autosize=1;strokeColor=none;fillColor=none;" parent="1" vertex="1">
          <mxGeometry x="-443" y="1350" width="90" height="30" as="geometry" />
        </mxCell>
        <mxCell id="fT4AIz35A2F0CcpxhLr5-79" value="SHELVES" style="swimlane;whiteSpace=wrap;html=1;" parent="1" vertex="1">
          <mxGeometry x="-510" y="280" width="220" height="300" as="geometry" />
        </mxCell>
        <mxCell id="fT4AIz35A2F0CcpxhLr5-99" value="&lt;font style=&quot;font-size: 16px;&quot;&gt;Reading&lt;/font&gt;" style="text;html=1;align=center;verticalAlign=middle;resizable=0;points=[];autosize=1;strokeColor=none;fillColor=none;" parent="fT4AIz35A2F0CcpxhLr5-79" vertex="1">
          <mxGeometry x="5" y="30" width="80" height="30" as="geometry" />
        </mxCell>
        <mxCell id="fT4AIz35A2F0CcpxhLr5-101" value="&lt;font style=&quot;font-size: 16px;&quot;&gt;Want to Read&lt;/font&gt;" style="text;html=1;align=center;verticalAlign=middle;resizable=0;points=[];autosize=1;strokeColor=none;fillColor=none;" parent="fT4AIz35A2F0CcpxhLr5-79" vertex="1">
          <mxGeometry y="210" width="120" height="30" as="geometry" />
        </mxCell>
        <mxCell id="fT4AIz35A2F0CcpxhLr5-100" value="&lt;font style=&quot;font-size: 16px;&quot;&gt;Read&lt;/font&gt;" style="text;html=1;align=center;verticalAlign=middle;resizable=0;points=[];autosize=1;strokeColor=none;fillColor=none;" parent="fT4AIz35A2F0CcpxhLr5-79" vertex="1">
          <mxGeometry x="5" y="120" width="60" height="30" as="geometry" />
        </mxCell>
        <mxCell id="fT4AIz35A2F0CcpxhLr5-119" value="" style="rounded=0;whiteSpace=wrap;html=1;" parent="fT4AIz35A2F0CcpxhLr5-79" vertex="1">
          <mxGeometry x="10" y="60" width="210" height="50" as="geometry" />
        </mxCell>
        <mxCell id="fT4AIz35A2F0CcpxhLr5-120" value="" style="endArrow=none;html=1;rounded=0;entryX=0.25;entryY=0;entryDx=0;entryDy=0;" parent="fT4AIz35A2F0CcpxhLr5-79" edge="1">
          <mxGeometry width="50" height="50" relative="1" as="geometry">
            <mxPoint x="109.5" y="110" as="sourcePoint" />
            <mxPoint x="109.5" y="60" as="targetPoint" />
          </mxGeometry>
        </mxCell>
        <mxCell id="fT4AIz35A2F0CcpxhLr5-121" value="" style="endArrow=none;html=1;rounded=0;entryX=0.25;entryY=0;entryDx=0;entryDy=0;" parent="fT4AIz35A2F0CcpxhLr5-79" edge="1">
          <mxGeometry width="50" height="50" relative="1" as="geometry">
            <mxPoint x="160" y="110" as="sourcePoint" />
            <mxPoint x="160" y="60" as="targetPoint" />
          </mxGeometry>
        </mxCell>
        <mxCell id="fT4AIz35A2F0CcpxhLr5-122" value="&lt;font style=&quot;font-size: 9px;&quot;&gt;poza carte&lt;/font&gt;" style="text;html=1;align=center;verticalAlign=middle;whiteSpace=wrap;rounded=0;" parent="fT4AIz35A2F0CcpxhLr5-79" vertex="1">
          <mxGeometry x="20" y="70" width="30" height="30" as="geometry" />
        </mxCell>
        <mxCell id="fT4AIz35A2F0CcpxhLr5-123" value="&lt;font style=&quot;font-size: 9px;&quot;&gt;poza carte&lt;/font&gt;" style="text;html=1;align=center;verticalAlign=middle;whiteSpace=wrap;rounded=0;" parent="fT4AIz35A2F0CcpxhLr5-79" vertex="1">
          <mxGeometry x="120" y="70" width="30" height="30" as="geometry" />
        </mxCell>
        <mxCell id="fT4AIz35A2F0CcpxhLr5-124" value="&lt;font style=&quot;font-size: 9px;&quot;&gt;poza carte&lt;/font&gt;" style="text;html=1;align=center;verticalAlign=middle;whiteSpace=wrap;rounded=0;" parent="fT4AIz35A2F0CcpxhLr5-79" vertex="1">
          <mxGeometry x="69" y="70" width="30" height="30" as="geometry" />
        </mxCell>
        <mxCell id="fT4AIz35A2F0CcpxhLr5-125" value="" style="endArrow=none;html=1;rounded=0;entryX=0.25;entryY=0;entryDx=0;entryDy=0;exitX=0.25;exitY=1;exitDx=0;exitDy=0;" parent="fT4AIz35A2F0CcpxhLr5-79" source="fT4AIz35A2F0CcpxhLr5-119" target="fT4AIz35A2F0CcpxhLr5-119" edge="1">
          <mxGeometry width="50" height="50" relative="1" as="geometry">
            <mxPoint x="60" y="110" as="sourcePoint" />
            <mxPoint x="110" y="80" as="targetPoint" />
          </mxGeometry>
        </mxCell>
        <mxCell id="fT4AIz35A2F0CcpxhLr5-126" value="&lt;font style=&quot;font-size: 10px;&quot;&gt;more books ...&lt;/font&gt;" style="text;html=1;align=center;verticalAlign=middle;whiteSpace=wrap;rounded=0;" parent="fT4AIz35A2F0CcpxhLr5-79" vertex="1">
          <mxGeometry x="165" y="70" width="45" height="30" as="geometry" />
        </mxCell>
        <mxCell id="fT4AIz35A2F0CcpxhLr5-143" value="" style="rounded=0;whiteSpace=wrap;html=1;" parent="fT4AIz35A2F0CcpxhLr5-79" vertex="1">
          <mxGeometry x="10" y="150" width="210" height="50" as="geometry" />
        </mxCell>
        <mxCell id="fT4AIz35A2F0CcpxhLr5-144" value="" style="endArrow=none;html=1;rounded=0;entryX=0.25;entryY=0;entryDx=0;entryDy=0;" parent="fT4AIz35A2F0CcpxhLr5-79" edge="1">
          <mxGeometry width="50" height="50" relative="1" as="geometry">
            <mxPoint x="109.5" y="200" as="sourcePoint" />
            <mxPoint x="109.5" y="150" as="targetPoint" />
          </mxGeometry>
        </mxCell>
        <mxCell id="fT4AIz35A2F0CcpxhLr5-145" value="" style="endArrow=none;html=1;rounded=0;entryX=0.25;entryY=0;entryDx=0;entryDy=0;" parent="fT4AIz35A2F0CcpxhLr5-79" edge="1">
          <mxGeometry width="50" height="50" relative="1" as="geometry">
            <mxPoint x="160" y="200" as="sourcePoint" />
            <mxPoint x="160" y="150" as="targetPoint" />
          </mxGeometry>
        </mxCell>
        <mxCell id="fT4AIz35A2F0CcpxhLr5-146" value="&lt;font style=&quot;font-size: 9px;&quot;&gt;poza carte&lt;/font&gt;" style="text;html=1;align=center;verticalAlign=middle;whiteSpace=wrap;rounded=0;" parent="fT4AIz35A2F0CcpxhLr5-79" vertex="1">
          <mxGeometry x="20" y="160" width="30" height="30" as="geometry" />
        </mxCell>
        <mxCell id="fT4AIz35A2F0CcpxhLr5-147" value="&lt;font style=&quot;font-size: 9px;&quot;&gt;poza carte&lt;/font&gt;" style="text;html=1;align=center;verticalAlign=middle;whiteSpace=wrap;rounded=0;" parent="fT4AIz35A2F0CcpxhLr5-79" vertex="1">
          <mxGeometry x="120" y="160" width="30" height="30" as="geometry" />
        </mxCell>
        <mxCell id="fT4AIz35A2F0CcpxhLr5-148" value="&lt;font style=&quot;font-size: 9px;&quot;&gt;poza carte&lt;/font&gt;" style="text;html=1;align=center;verticalAlign=middle;whiteSpace=wrap;rounded=0;" parent="fT4AIz35A2F0CcpxhLr5-79" vertex="1">
          <mxGeometry x="69" y="160" width="30" height="30" as="geometry" />
        </mxCell>
        <mxCell id="fT4AIz35A2F0CcpxhLr5-149" value="" style="endArrow=none;html=1;rounded=0;entryX=0.25;entryY=0;entryDx=0;entryDy=0;exitX=0.25;exitY=1;exitDx=0;exitDy=0;" parent="fT4AIz35A2F0CcpxhLr5-79" source="fT4AIz35A2F0CcpxhLr5-143" target="fT4AIz35A2F0CcpxhLr5-143" edge="1">
          <mxGeometry width="50" height="50" relative="1" as="geometry">
            <mxPoint x="60" y="200" as="sourcePoint" />
            <mxPoint x="110" y="170" as="targetPoint" />
          </mxGeometry>
        </mxCell>
        <mxCell id="fT4AIz35A2F0CcpxhLr5-150" value="&lt;font style=&quot;font-size: 10px;&quot;&gt;more books ...&lt;/font&gt;" style="text;html=1;align=center;verticalAlign=middle;whiteSpace=wrap;rounded=0;" parent="fT4AIz35A2F0CcpxhLr5-79" vertex="1">
          <mxGeometry x="165" y="160" width="45" height="30" as="geometry" />
        </mxCell>
        <mxCell id="fT4AIz35A2F0CcpxhLr5-179" value="" style="rounded=0;whiteSpace=wrap;html=1;" parent="fT4AIz35A2F0CcpxhLr5-79" vertex="1">
          <mxGeometry x="10" y="240" width="210" height="50" as="geometry" />
        </mxCell>
        <mxCell id="fT4AIz35A2F0CcpxhLr5-180" value="" style="endArrow=none;html=1;rounded=0;entryX=0.25;entryY=0;entryDx=0;entryDy=0;" parent="fT4AIz35A2F0CcpxhLr5-79" edge="1">
          <mxGeometry width="50" height="50" relative="1" as="geometry">
            <mxPoint x="109.5" y="290" as="sourcePoint" />
            <mxPoint x="109.5" y="240" as="targetPoint" />
          </mxGeometry>
        </mxCell>
        <mxCell id="fT4AIz35A2F0CcpxhLr5-181" value="" style="endArrow=none;html=1;rounded=0;entryX=0.25;entryY=0;entryDx=0;entryDy=0;" parent="fT4AIz35A2F0CcpxhLr5-79" edge="1">
          <mxGeometry width="50" height="50" relative="1" as="geometry">
            <mxPoint x="160" y="290" as="sourcePoint" />
            <mxPoint x="160" y="240" as="targetPoint" />
          </mxGeometry>
        </mxCell>
        <mxCell id="fT4AIz35A2F0CcpxhLr5-182" value="&lt;font style=&quot;font-size: 9px;&quot;&gt;poza carte&lt;/font&gt;" style="text;html=1;align=center;verticalAlign=middle;whiteSpace=wrap;rounded=0;" parent="fT4AIz35A2F0CcpxhLr5-79" vertex="1">
          <mxGeometry x="20" y="250" width="30" height="30" as="geometry" />
        </mxCell>
        <mxCell id="fT4AIz35A2F0CcpxhLr5-183" value="&lt;font style=&quot;font-size: 9px;&quot;&gt;poza carte&lt;/font&gt;" style="text;html=1;align=center;verticalAlign=middle;whiteSpace=wrap;rounded=0;" parent="fT4AIz35A2F0CcpxhLr5-79" vertex="1">
          <mxGeometry x="120" y="250" width="30" height="30" as="geometry" />
        </mxCell>
        <mxCell id="fT4AIz35A2F0CcpxhLr5-184" value="&lt;font style=&quot;font-size: 9px;&quot;&gt;poza carte&lt;/font&gt;" style="text;html=1;align=center;verticalAlign=middle;whiteSpace=wrap;rounded=0;" parent="fT4AIz35A2F0CcpxhLr5-79" vertex="1">
          <mxGeometry x="69" y="250" width="30" height="30" as="geometry" />
        </mxCell>
        <mxCell id="fT4AIz35A2F0CcpxhLr5-185" value="" style="endArrow=none;html=1;rounded=0;entryX=0.25;entryY=0;entryDx=0;entryDy=0;exitX=0.25;exitY=1;exitDx=0;exitDy=0;" parent="fT4AIz35A2F0CcpxhLr5-79" source="fT4AIz35A2F0CcpxhLr5-179" target="fT4AIz35A2F0CcpxhLr5-179" edge="1">
          <mxGeometry width="50" height="50" relative="1" as="geometry">
            <mxPoint x="60" y="290" as="sourcePoint" />
            <mxPoint x="110" y="260" as="targetPoint" />
          </mxGeometry>
        </mxCell>
        <mxCell id="fT4AIz35A2F0CcpxhLr5-186" value="&lt;font style=&quot;font-size: 10px;&quot;&gt;more books ...&lt;/font&gt;" style="text;html=1;align=center;verticalAlign=middle;whiteSpace=wrap;rounded=0;" parent="fT4AIz35A2F0CcpxhLr5-79" vertex="1">
          <mxGeometry x="165" y="250" width="45" height="30" as="geometry" />
        </mxCell>
        <mxCell id="fT4AIz35A2F0CcpxhLr5-87" value="&lt;font style=&quot;font-size: 16px;&quot;&gt;My Books&lt;/font&gt;" style="text;html=1;align=center;verticalAlign=middle;resizable=0;points=[];autosize=1;strokeColor=none;fillColor=none;" parent="1" vertex="1">
          <mxGeometry x="-170" y="580" width="90" height="30" as="geometry" />
        </mxCell>
        <mxCell id="fT4AIz35A2F0CcpxhLr5-88" value="&lt;font style=&quot;font-size: 18px;&quot;&gt;bara de jos:&lt;/font&gt;" style="text;html=1;align=center;verticalAlign=middle;resizable=0;points=[];autosize=1;strokeColor=none;fillColor=none;" parent="1" vertex="1">
          <mxGeometry x="-518" y="120" width="120" height="40" as="geometry" />
        </mxCell>
        <mxCell id="fT4AIz35A2F0CcpxhLr5-89" value="" style="rounded=1;whiteSpace=wrap;html=1;" parent="1" vertex="1">
          <mxGeometry x="-523" y="160" width="550" height="47" as="geometry" />
        </mxCell>
        <mxCell id="fT4AIz35A2F0CcpxhLr5-90" value="" style="endArrow=none;html=1;rounded=0;exitX=0.25;exitY=0;exitDx=0;exitDy=0;entryX=0.25;entryY=1;entryDx=0;entryDy=0;" parent="1" source="fT4AIz35A2F0CcpxhLr5-89" target="fT4AIz35A2F0CcpxhLr5-89" edge="1">
          <mxGeometry width="50" height="50" relative="1" as="geometry">
            <mxPoint x="-103" y="157" as="sourcePoint" />
            <mxPoint x="-53" y="107" as="targetPoint" />
          </mxGeometry>
        </mxCell>
        <mxCell id="fT4AIz35A2F0CcpxhLr5-91" value="" style="endArrow=none;html=1;rounded=0;exitX=0.5;exitY=0;exitDx=0;exitDy=0;entryX=0.5;entryY=1;entryDx=0;entryDy=0;" parent="1" source="fT4AIz35A2F0CcpxhLr5-89" target="fT4AIz35A2F0CcpxhLr5-89" edge="1">
          <mxGeometry width="50" height="50" relative="1" as="geometry">
            <mxPoint x="-273" y="160" as="sourcePoint" />
            <mxPoint x="-273" y="207" as="targetPoint" />
          </mxGeometry>
        </mxCell>
        <mxCell id="fT4AIz35A2F0CcpxhLr5-93" value="" style="endArrow=none;html=1;rounded=0;exitX=0.75;exitY=0;exitDx=0;exitDy=0;entryX=0.75;entryY=1;entryDx=0;entryDy=0;" parent="1" source="fT4AIz35A2F0CcpxhLr5-89" target="fT4AIz35A2F0CcpxhLr5-89" edge="1">
          <mxGeometry width="50" height="50" relative="1" as="geometry">
            <mxPoint x="-366" y="180" as="sourcePoint" />
            <mxPoint x="-366" y="227" as="targetPoint" />
          </mxGeometry>
        </mxCell>
        <mxCell id="fT4AIz35A2F0CcpxhLr5-95" value="&lt;font style=&quot;font-size: 16px;&quot;&gt;My Books&lt;/font&gt;" style="text;html=1;align=center;verticalAlign=middle;resizable=0;points=[];autosize=1;strokeColor=none;fillColor=none;" parent="1" vertex="1">
          <mxGeometry x="-503" y="168.5" width="90" height="30" as="geometry" />
        </mxCell>
        <mxCell id="fT4AIz35A2F0CcpxhLr5-96" value="&lt;font style=&quot;font-size: 16px;&quot;&gt;Search&lt;/font&gt;" style="text;html=1;align=center;verticalAlign=middle;resizable=0;points=[];autosize=1;strokeColor=none;fillColor=none;" parent="1" vertex="1">
          <mxGeometry x="-353" y="168.5" width="70" height="30" as="geometry" />
        </mxCell>
        <mxCell id="fT4AIz35A2F0CcpxhLr5-97" value="&lt;font style=&quot;font-size: 16px;&quot;&gt;My Profile&lt;/font&gt;" style="text;html=1;align=center;verticalAlign=middle;resizable=0;points=[];autosize=1;strokeColor=none;fillColor=none;" parent="1" vertex="1">
          <mxGeometry x="-223" y="168.5" width="90" height="30" as="geometry" />
        </mxCell>
        <mxCell id="fT4AIz35A2F0CcpxhLr5-98" value="&lt;font style=&quot;font-size: 16px;&quot;&gt;Notifications&lt;/font&gt;" style="text;html=1;align=center;verticalAlign=middle;resizable=0;points=[];autosize=1;strokeColor=none;fillColor=none;" parent="1" vertex="1">
          <mxGeometry x="-93" y="168.5" width="110" height="30" as="geometry" />
        </mxCell>
        <mxCell id="fT4AIz35A2F0CcpxhLr5-102" value="NUME SHELF (de ex WANT TO READ)" style="swimlane;whiteSpace=wrap;html=1;" parent="1" vertex="1">
          <mxGeometry x="-220" y="280" width="220" height="300" as="geometry" />
        </mxCell>
        <mxCell id="fT4AIz35A2F0CcpxhLr5-187" value="POZA CARTE" style="rounded=0;whiteSpace=wrap;html=1;" parent="fT4AIz35A2F0CcpxhLr5-102" vertex="1">
          <mxGeometry x="10" y="40" width="50" height="60" as="geometry" />
        </mxCell>
        <mxCell id="fT4AIz35A2F0CcpxhLr5-189" value="POZA CARTE" style="rounded=0;whiteSpace=wrap;html=1;" parent="fT4AIz35A2F0CcpxhLr5-102" vertex="1">
          <mxGeometry x="10" y="240" width="50" height="60" as="geometry" />
        </mxCell>
        <mxCell id="fT4AIz35A2F0CcpxhLr5-188" value="POZA CARTE" style="rounded=0;whiteSpace=wrap;html=1;" parent="fT4AIz35A2F0CcpxhLr5-102" vertex="1">
          <mxGeometry x="10" y="140" width="50" height="60" as="geometry" />
        </mxCell>
        <mxCell id="fT4AIz35A2F0CcpxhLr5-190" value="" style="endArrow=none;html=1;rounded=0;" parent="fT4AIz35A2F0CcpxhLr5-102" edge="1">
          <mxGeometry width="50" height="50" relative="1" as="geometry">
            <mxPoint x="10" y="120" as="sourcePoint" />
            <mxPoint x="210" y="120" as="targetPoint" />
          </mxGeometry>
        </mxCell>
        <mxCell id="fT4AIz35A2F0CcpxhLr5-191" value="" style="endArrow=none;html=1;rounded=0;" parent="fT4AIz35A2F0CcpxhLr5-102" edge="1">
          <mxGeometry width="50" height="50" relative="1" as="geometry">
            <mxPoint x="10" y="220" as="sourcePoint" />
            <mxPoint x="210" y="220" as="targetPoint" />
          </mxGeometry>
        </mxCell>
        <mxCell id="fT4AIz35A2F0CcpxhLr5-192" value="&lt;font style=&quot;font-size: 14px;&quot;&gt;informatii carte ...&lt;/font&gt;" style="text;html=1;align=center;verticalAlign=middle;resizable=0;points=[];autosize=1;strokeColor=none;fillColor=none;" parent="fT4AIz35A2F0CcpxhLr5-102" vertex="1">
          <mxGeometry x="65" y="55" width="130" height="30" as="geometry" />
        </mxCell>
        <mxCell id="fT4AIz35A2F0CcpxhLr5-194" value="&lt;font style=&quot;font-size: 14px;&quot;&gt;informatii carte ...&lt;/font&gt;" style="text;html=1;align=center;verticalAlign=middle;resizable=0;points=[];autosize=1;strokeColor=none;fillColor=none;" parent="fT4AIz35A2F0CcpxhLr5-102" vertex="1">
          <mxGeometry x="65" y="250" width="130" height="30" as="geometry" />
        </mxCell>
        <mxCell id="fT4AIz35A2F0CcpxhLr5-193" value="&lt;font style=&quot;font-size: 14px;&quot;&gt;informatii carte ...&lt;/font&gt;" style="text;html=1;align=center;verticalAlign=middle;resizable=0;points=[];autosize=1;strokeColor=none;fillColor=none;" parent="fT4AIz35A2F0CcpxhLr5-102" vertex="1">
          <mxGeometry x="65" y="155" width="130" height="30" as="geometry" />
        </mxCell>
        <mxCell id="fT4AIz35A2F0CcpxhLr5-106" value="&lt;font style=&quot;font-size: 16px;&quot;&gt;My Books&lt;/font&gt;" style="text;html=1;align=center;verticalAlign=middle;resizable=0;points=[];autosize=1;strokeColor=none;fillColor=none;" parent="1" vertex="1">
          <mxGeometry x="-445" y="585" width="90" height="30" as="geometry" />
        </mxCell>
        <mxCell id="fT4AIz35A2F0CcpxhLr5-195" value="" style="endArrow=classic;html=1;rounded=0;" parent="1" edge="1">
          <mxGeometry width="50" height="50" relative="1" as="geometry">
            <mxPoint x="-280" y="370" as="sourcePoint" />
            <mxPoint x="-230" y="370" as="targetPoint" />
          </mxGeometry>
        </mxCell>
        <mxCell id="fT4AIz35A2F0CcpxhLr5-196" value="" style="endArrow=classic;html=1;rounded=0;" parent="1" edge="1">
          <mxGeometry width="50" height="50" relative="1" as="geometry">
            <mxPoint x="10" y="370" as="sourcePoint" />
            <mxPoint x="60" y="370" as="targetPoint" />
          </mxGeometry>
        </mxCell>
        <mxCell id="fT4AIz35A2F0CcpxhLr5-200" value="" style="endArrow=classic;html=1;rounded=0;" parent="1" edge="1">
          <mxGeometry width="50" height="50" relative="1" as="geometry">
            <mxPoint x="-280" y="690" as="sourcePoint" />
            <mxPoint x="-230" y="690" as="targetPoint" />
          </mxGeometry>
        </mxCell>
        <mxCell id="fT4AIz35A2F0CcpxhLr5-201" value="" style="swimlane;startSize=0;" parent="1" vertex="1">
          <mxGeometry x="-220" y="650" width="220" height="300" as="geometry" />
        </mxCell>
        <mxCell id="fT4AIz35A2F0CcpxhLr5-202" value="&lt;font style=&quot;font-size: 14px;&quot;&gt;bara de cautare&lt;/font&gt;" style="rounded=1;whiteSpace=wrap;html=1;" parent="fT4AIz35A2F0CcpxhLr5-201" vertex="1">
          <mxGeometry x="10" y="20" width="200" height="30" as="geometry" />
        </mxCell>
        <mxCell id="fT4AIz35A2F0CcpxhLr5-223" value="POZA CARTE" style="rounded=0;whiteSpace=wrap;html=1;" parent="fT4AIz35A2F0CcpxhLr5-201" vertex="1">
          <mxGeometry x="25" y="70" width="50" height="60" as="geometry" />
        </mxCell>
        <mxCell id="fT4AIz35A2F0CcpxhLr5-224" value="&lt;font style=&quot;font-size: 14px;&quot;&gt;informatii carte ...&lt;/font&gt;" style="text;html=1;align=center;verticalAlign=middle;resizable=0;points=[];autosize=1;strokeColor=none;fillColor=none;" parent="fT4AIz35A2F0CcpxhLr5-201" vertex="1">
          <mxGeometry x="80" y="85" width="130" height="30" as="geometry" />
        </mxCell>
        <mxCell id="fT4AIz35A2F0CcpxhLr5-222" value="&lt;font style=&quot;font-size: 16px;&quot;&gt;Search&lt;/font&gt;" style="text;html=1;align=center;verticalAlign=middle;resizable=0;points=[];autosize=1;strokeColor=none;fillColor=none;" parent="1" vertex="1">
          <mxGeometry x="-145" y="950" width="70" height="30" as="geometry" />
        </mxCell>
        <mxCell id="fT4AIz35A2F0CcpxhLr5-225" value="" style="endArrow=classic;html=1;rounded=0;" parent="1" edge="1">
          <mxGeometry width="50" height="50" relative="1" as="geometry">
            <mxPoint x="10" y="720" as="sourcePoint" />
            <mxPoint x="110" y="600" as="targetPoint" />
          </mxGeometry>
        </mxCell>
        <mxCell id="fT4AIz35A2F0CcpxhLr5-230" value="&lt;font style=&quot;font-size: 16px;&quot;&gt;Search&lt;/font&gt;" style="text;html=1;align=center;verticalAlign=middle;resizable=0;points=[];autosize=1;strokeColor=none;fillColor=none;" parent="1" vertex="1">
          <mxGeometry x="165" y="950" width="70" height="30" as="geometry" />
        </mxCell>
        <mxCell id="fT4AIz35A2F0CcpxhLr5-231" value="NUME GEN" style="swimlane;whiteSpace=wrap;html=1;" parent="1" vertex="1">
          <mxGeometry x="90" y="650" width="220" height="300" as="geometry" />
        </mxCell>
        <mxCell id="fT4AIz35A2F0CcpxhLr5-240" value="POZA CARTE" style="rounded=0;whiteSpace=wrap;html=1;" parent="fT4AIz35A2F0CcpxhLr5-231" vertex="1">
          <mxGeometry x="25" y="50" width="50" height="60" as="geometry" />
        </mxCell>
        <mxCell id="fT4AIz35A2F0CcpxhLr5-243" value="&lt;font style=&quot;font-size: 10px;&quot;&gt;nume carte&lt;/font&gt;" style="text;html=1;align=center;verticalAlign=middle;resizable=0;points=[];autosize=1;strokeColor=none;fillColor=none;" parent="fT4AIz35A2F0CcpxhLr5-231" vertex="1">
          <mxGeometry x="15" y="110" width="70" height="30" as="geometry" />
        </mxCell>
        <mxCell id="fT4AIz35A2F0CcpxhLr5-246" value="POZA CARTE" style="rounded=0;whiteSpace=wrap;html=1;" parent="fT4AIz35A2F0CcpxhLr5-231" vertex="1">
          <mxGeometry x="140" y="50" width="50" height="60" as="geometry" />
        </mxCell>
        <mxCell id="fT4AIz35A2F0CcpxhLr5-247" value="&lt;font style=&quot;font-size: 10px;&quot;&gt;nume carte&lt;/font&gt;" style="text;html=1;align=center;verticalAlign=middle;resizable=0;points=[];autosize=1;strokeColor=none;fillColor=none;" parent="fT4AIz35A2F0CcpxhLr5-231" vertex="1">
          <mxGeometry x="130" y="110" width="70" height="30" as="geometry" />
        </mxCell>
        <mxCell id="fT4AIz35A2F0CcpxhLr5-248" value="POZA CARTE" style="rounded=0;whiteSpace=wrap;html=1;" parent="fT4AIz35A2F0CcpxhLr5-231" vertex="1">
          <mxGeometry x="25" y="170" width="50" height="60" as="geometry" />
        </mxCell>
        <mxCell id="fT4AIz35A2F0CcpxhLr5-249" value="&lt;font style=&quot;font-size: 10px;&quot;&gt;nume carte&lt;/font&gt;" style="text;html=1;align=center;verticalAlign=middle;resizable=0;points=[];autosize=1;strokeColor=none;fillColor=none;" parent="fT4AIz35A2F0CcpxhLr5-231" vertex="1">
          <mxGeometry x="15" y="230" width="70" height="30" as="geometry" />
        </mxCell>
        <mxCell id="fT4AIz35A2F0CcpxhLr5-251" value="POZA CARTE" style="rounded=0;whiteSpace=wrap;html=1;" parent="fT4AIz35A2F0CcpxhLr5-231" vertex="1">
          <mxGeometry x="140" y="170" width="50" height="60" as="geometry" />
        </mxCell>
        <mxCell id="fT4AIz35A2F0CcpxhLr5-252" value="&lt;font style=&quot;font-size: 10px;&quot;&gt;nume carte&lt;/font&gt;" style="text;html=1;align=center;verticalAlign=middle;resizable=0;points=[];autosize=1;strokeColor=none;fillColor=none;" parent="fT4AIz35A2F0CcpxhLr5-231" vertex="1">
          <mxGeometry x="130" y="230" width="70" height="30" as="geometry" />
        </mxCell>
        <mxCell id="fT4AIz35A2F0CcpxhLr5-250" value="" style="endArrow=none;html=1;rounded=0;" parent="1" edge="1">
          <mxGeometry width="50" height="50" relative="1" as="geometry">
            <mxPoint x="100" y="800" as="sourcePoint" />
            <mxPoint x="180" y="800" as="targetPoint" />
          </mxGeometry>
        </mxCell>
        <mxCell id="fT4AIz35A2F0CcpxhLr5-255" value="" style="endArrow=none;html=1;rounded=0;" parent="1" edge="1">
          <mxGeometry width="50" height="50" relative="1" as="geometry">
            <mxPoint x="220" y="800" as="sourcePoint" />
            <mxPoint x="290" y="800" as="targetPoint" />
          </mxGeometry>
        </mxCell>
        <mxCell id="fT4AIz35A2F0CcpxhLr5-256" value="" style="endArrow=none;html=1;rounded=0;" parent="1" edge="1">
          <mxGeometry width="50" height="50" relative="1" as="geometry">
            <mxPoint x="110" y="920" as="sourcePoint" />
            <mxPoint x="180" y="920" as="targetPoint" />
          </mxGeometry>
        </mxCell>
        <mxCell id="fT4AIz35A2F0CcpxhLr5-257" value="" style="endArrow=none;html=1;rounded=0;" parent="1" edge="1">
          <mxGeometry width="50" height="50" relative="1" as="geometry">
            <mxPoint x="220" y="920" as="sourcePoint" />
            <mxPoint x="290" y="920" as="targetPoint" />
          </mxGeometry>
        </mxCell>
        <mxCell id="fT4AIz35A2F0CcpxhLr5-258" value="" style="endArrow=classic;html=1;rounded=0;" parent="1" edge="1">
          <mxGeometry width="50" height="50" relative="1" as="geometry">
            <mxPoint x="-280" y="880" as="sourcePoint" />
            <mxPoint x="80" y="920" as="targetPoint" />
            <Array as="points">
              <mxPoint x="-260" y="880" />
              <mxPoint x="-260" y="1000" />
              <mxPoint x="40" y="1000" />
              <mxPoint x="40" y="920" />
            </Array>
          </mxGeometry>
        </mxCell>
        <mxCell id="fT4AIz35A2F0CcpxhLr5-259" value="" style="endArrow=classic;html=1;rounded=0;" parent="1" edge="1">
          <mxGeometry width="50" height="50" relative="1" as="geometry">
            <mxPoint x="260" y="640" as="sourcePoint" />
            <mxPoint x="260" y="600" as="targetPoint" />
          </mxGeometry>
        </mxCell>
        <mxCell id="vKX9cb_u-WbWg1o9BRCX-1" value="CREATE REVIEW" style="swimlane;whiteSpace=wrap;html=1;" parent="1" vertex="1">
          <mxGeometry x="670" y="280" width="220" height="300" as="geometry" />
        </mxCell>
        <mxCell id="vKX9cb_u-WbWg1o9BRCX-25" value="Write your review ..." style="rounded=0;whiteSpace=wrap;html=1;" parent="vKX9cb_u-WbWg1o9BRCX-1" vertex="1">
          <mxGeometry x="20" y="40" width="180" height="70" as="geometry" />
        </mxCell>
        <mxCell id="vKX9cb_u-WbWg1o9BRCX-26" value="&lt;font style=&quot;font-size: 10px;&quot;&gt;POST REVIEW&lt;/font&gt;" style="rounded=1;whiteSpace=wrap;html=1;" parent="vKX9cb_u-WbWg1o9BRCX-1" vertex="1">
          <mxGeometry x="80" y="120" width="60" height="30" as="geometry" />
        </mxCell>
        <mxCell id="vKX9cb_u-WbWg1o9BRCX-10" value="" style="swimlane;startSize=0;" parent="1" vertex="1">
          <mxGeometry x="110" y="1050" width="250" height="300" as="geometry" />
        </mxCell>
        <mxCell id="vKX9cb_u-WbWg1o9BRCX-14" value="&lt;font style=&quot;font-size: 16px;&quot;&gt;You rated ... 5 stars.&amp;nbsp;&lt;/font&gt;" style="text;html=1;align=center;verticalAlign=middle;whiteSpace=wrap;rounded=0;" parent="vKX9cb_u-WbWg1o9BRCX-10" vertex="1">
          <mxGeometry x="-5" y="20" width="260" height="30" as="geometry" />
        </mxCell>
        <mxCell id="vKX9cb_u-WbWg1o9BRCX-15" value="&lt;font style=&quot;font-size: 16px;&quot;&gt;You read ...&amp;nbsp;&lt;/font&gt;" style="text;html=1;align=center;verticalAlign=middle;whiteSpace=wrap;rounded=0;" parent="vKX9cb_u-WbWg1o9BRCX-10" vertex="1">
          <mxGeometry x="43.5" y="70" width="163" height="30" as="geometry" />
        </mxCell>
        <mxCell id="vKX9cb_u-WbWg1o9BRCX-16" value="&lt;font style=&quot;font-size: 16px;&quot;&gt;You are currently reading ...&lt;span style=&quot;color: rgba(0, 0, 0, 0); font-family: monospace; font-size: 0px; text-align: start; text-wrap-mode: nowrap;&quot;&gt;%3CmxGraphModel%3E%3Croot%3E%3CmxCell%20id%3D%220%22%2F%3E%3CmxCell%20id%3D%221%22%20parent%3D%220%22%2F%3E%3CmxCell%20id%3D%222%22%20value%3D%22%26lt%3Bfont%20style%3D%26quot%3Bfont-size%3A%2016px%3B%26quot%3B%26gt%3BYou%20read%20book%20...%26amp%3Bnbsp%3B%26lt%3B%2Ffont%26gt%3B%22%20style%3D%22text%3Bhtml%3D1%3Balign%3Dcenter%3BverticalAlign%3Dmiddle%3BwhiteSpace%3Dwrap%3Brounded%3D0%3B%22%20vertex%3D%221%22%20parent%3D%221%22%3E%3CmxGeometry%20x%3D%22-190%22%20y%3D%221120%22%20width%3D%22163%22%20height%3D%2230%22%20as%3D%22geometry%22%2F%3E%3C%2FmxCell%3E%3C%2Froot%3E%3C%2FmxGraphModel%3E&lt;/span&gt;&lt;span style=&quot;color: rgba(0, 0, 0, 0); font-family: monospace; font-size: 0px; text-align: start; text-wrap-mode: nowrap;&quot;&gt;%3CmxGraphModel%3E%3Croot%3E%3CmxCell%20id%3D%220%22%2F%3E%3CmxCell%20id%3D%221%22%20parent%3D%220%22%2F%3E%3CmxCell%20id%3D%222%22%20value%3D%22%26lt%3Bfont%20style%3D%26quot%3Bfont-size%3A%2016px%3B%26quot%3B%26gt%3BYou%20read%20book%20...%26amp%3Bnbsp%3B%26lt%3B%2Ffont%26gt%3B%22%20style%3D%22text%3Bhtml%3D1%3Balign%3Dcenter%3BverticalAlign%3Dmiddle%3BwhiteSpace%3Dwrap%3Brounded%3D0%3B%22%20vertex%3D%221%22%20parent%3D%221%22%3E%3CmxGeometry%20x%3D%22-190%22%20y%3D%221120%22%20width%3D%22163%22%20height%3D%2230%22%20as%3D%22geometry%22%2F%3E%3C%2FmxCell%3E%3C%2Froot%3E%3C%2FmxGraphModel%3E&amp;nbsp;&lt;/span&gt;&lt;/font&gt;" style="text;html=1;align=center;verticalAlign=middle;whiteSpace=wrap;rounded=0;" parent="vKX9cb_u-WbWg1o9BRCX-10" vertex="1">
          <mxGeometry x="5" y="119" width="240" height="30" as="geometry" />
        </mxCell>
        <mxCell id="vKX9cb_u-WbWg1o9BRCX-20" value="" style="endArrow=none;html=1;rounded=0;" parent="vKX9cb_u-WbWg1o9BRCX-10" edge="1">
          <mxGeometry width="50" height="50" relative="1" as="geometry">
            <mxPoint x="25" y="60" as="sourcePoint" />
            <mxPoint x="225" y="60" as="targetPoint" />
          </mxGeometry>
        </mxCell>
        <mxCell id="vKX9cb_u-WbWg1o9BRCX-19" value="" style="endArrow=none;html=1;rounded=0;" parent="vKX9cb_u-WbWg1o9BRCX-10" edge="1">
          <mxGeometry width="50" height="50" relative="1" as="geometry">
            <mxPoint x="25" y="110" as="sourcePoint" />
            <mxPoint x="225" y="110" as="targetPoint" />
          </mxGeometry>
        </mxCell>
        <mxCell id="vKX9cb_u-WbWg1o9BRCX-22" value="&lt;font style=&quot;font-size: 16px;&quot;&gt;etc ...&lt;/font&gt;" style="text;html=1;align=center;verticalAlign=middle;resizable=0;points=[];autosize=1;strokeColor=none;fillColor=none;" parent="vKX9cb_u-WbWg1o9BRCX-10" vertex="1">
          <mxGeometry x="95" y="170" width="60" height="30" as="geometry" />
        </mxCell>
        <mxCell id="vKX9cb_u-WbWg1o9BRCX-13" value="&lt;font style=&quot;font-size: 16px;&quot;&gt;Notifications&lt;/font&gt;" style="text;html=1;align=center;verticalAlign=middle;resizable=0;points=[];autosize=1;strokeColor=none;fillColor=none;" parent="1" vertex="1">
          <mxGeometry x="180" y="1350" width="110" height="30" as="geometry" />
        </mxCell>
        <mxCell id="vKX9cb_u-WbWg1o9BRCX-23" value="" style="endArrow=classic;html=1;rounded=0;" parent="1" edge="1">
          <mxGeometry width="50" height="50" relative="1" as="geometry">
            <mxPoint x="300" y="440" as="sourcePoint" />
            <mxPoint x="360" y="440" as="targetPoint" />
          </mxGeometry>
        </mxCell>
        <mxCell id="vKX9cb_u-WbWg1o9BRCX-30" value="&lt;font style=&quot;font-size: 16px;&quot;&gt;My Books&lt;/font&gt;" style="text;html=1;align=center;verticalAlign=middle;resizable=0;points=[];autosize=1;strokeColor=none;fillColor=none;" parent="1" vertex="1">
          <mxGeometry x="430" y="580" width="90" height="30" as="geometry" />
        </mxCell>
        <mxCell id="vKX9cb_u-WbWg1o9BRCX-35" value="" style="endArrow=classic;html=1;rounded=0;" parent="1" edge="1">
          <mxGeometry width="50" height="50" relative="1" as="geometry">
            <mxPoint x="-283" y="1110" as="sourcePoint" />
            <mxPoint x="-220" y="1110" as="targetPoint" />
          </mxGeometry>
        </mxCell>
        <mxCell id="vKX9cb_u-WbWg1o9BRCX-37" value="EDIT PROFILE" style="swimlane;whiteSpace=wrap;html=1;" parent="1" vertex="1">
          <mxGeometry x="-203" y="1050" width="220" height="300" as="geometry" />
        </mxCell>
        <mxCell id="vKX9cb_u-WbWg1o9BRCX-46" value="&lt;font style=&quot;font-size: 16px;&quot;&gt;My Profile&lt;/font&gt;" style="text;html=1;align=center;verticalAlign=middle;resizable=0;points=[];autosize=1;strokeColor=none;fillColor=none;" parent="1" vertex="1">
          <mxGeometry x="-138" y="1350" width="90" height="30" as="geometry" />
        </mxCell>
        <mxCell id="M1Svp52eEEMq82hc-7k6-1" value="ALL REVIEWS" style="swimlane;whiteSpace=wrap;html=1;" parent="1" vertex="1">
          <mxGeometry x="370" y="280" width="220" height="300" as="geometry" />
        </mxCell>
        <mxCell id="M1Svp52eEEMq82hc-7k6-2" value="Continut review ..." style="rounded=0;whiteSpace=wrap;html=1;" parent="M1Svp52eEEMq82hc-7k6-1" vertex="1">
          <mxGeometry x="20" y="60" width="180" height="70" as="geometry" />
        </mxCell>
        <mxCell id="M1Svp52eEEMq82hc-7k6-4" value="&lt;font style=&quot;font-size: 11px;&quot;&gt;nume utilizator&lt;/font&gt;" style="rounded=0;whiteSpace=wrap;html=1;" parent="M1Svp52eEEMq82hc-7k6-1" vertex="1">
          <mxGeometry x="20" y="40" width="90" height="20" as="geometry" />
        </mxCell>
        <mxCell id="M1Svp52eEEMq82hc-7k6-6" value="" style="endArrow=none;html=1;rounded=0;" parent="M1Svp52eEEMq82hc-7k6-1" edge="1">
          <mxGeometry width="50" height="50" relative="1" as="geometry">
            <mxPoint x="10" y="149.64" as="sourcePoint" />
            <mxPoint x="210" y="149.64" as="targetPoint" />
          </mxGeometry>
        </mxCell>
        <mxCell id="M1Svp52eEEMq82hc-7k6-9" value="Continut review ..." style="rounded=0;whiteSpace=wrap;html=1;" parent="M1Svp52eEEMq82hc-7k6-1" vertex="1">
          <mxGeometry x="20" y="180" width="180" height="70" as="geometry" />
        </mxCell>
        <mxCell id="M1Svp52eEEMq82hc-7k6-10" value="&lt;font style=&quot;font-size: 11px;&quot;&gt;nume utilizator&lt;/font&gt;" style="rounded=0;whiteSpace=wrap;html=1;" parent="M1Svp52eEEMq82hc-7k6-1" vertex="1">
          <mxGeometry x="20" y="160" width="90" height="20" as="geometry" />
        </mxCell>
        <mxCell id="M1Svp52eEEMq82hc-7k6-3" value="&lt;font style=&quot;font-size: 10px;&quot;&gt;WRITE YOUR REVIEW&lt;/font&gt;" style="rounded=1;whiteSpace=wrap;html=1;" parent="M1Svp52eEEMq82hc-7k6-1" vertex="1">
          <mxGeometry x="75" y="260" width="70" height="30" as="geometry" />
        </mxCell>
        <mxCell id="M1Svp52eEEMq82hc-7k6-5" value="" style="endArrow=none;html=1;rounded=0;" parent="1" edge="1">
          <mxGeometry width="50" height="50" relative="1" as="geometry">
            <mxPoint x="-210" y="500" as="sourcePoint" />
            <mxPoint x="-10" y="500" as="targetPoint" />
          </mxGeometry>
        </mxCell>
        <mxCell id="M1Svp52eEEMq82hc-7k6-11" value="" style="endArrow=classic;html=1;rounded=0;" parent="1" edge="1">
          <mxGeometry width="50" height="50" relative="1" as="geometry">
            <mxPoint x="600" y="440" as="sourcePoint" />
            <mxPoint x="660" y="440" as="targetPoint" />
          </mxGeometry>
        </mxCell>
        <mxCell id="M1Svp52eEEMq82hc-7k6-12" value="&lt;font style=&quot;font-size: 16px;&quot;&gt;My Books&lt;/font&gt;" style="text;html=1;align=center;verticalAlign=middle;resizable=0;points=[];autosize=1;strokeColor=none;fillColor=none;" parent="1" vertex="1">
          <mxGeometry x="737" y="580" width="90" height="30" as="geometry" />
        </mxCell>
      </root>
    </mxGraphModel>
  </diagram>
</mxfile>
